# xmcd
#
# Track frame offsets:
#  150
#  22409
#  40152
#  58796
#  78155
#  97748
#  117517
#  136489
#  157294
#  180514
#  198813
#  216271
#  234214
#
# Disc length: 3360 seconds
#
# Revision: 0
# Processed by: cddbd v1.5.1PL0 Copyright (c) Steve Scherf et al.
# Submitted via: AltoMP3_Maker 3.0
#
DISCID=af0d1e0d
DTITLE=Brook - The Great Blues Sea
DYEAR=1900
DGENRE=
TTITLE0=Earth Rhythms
TTITLE1=Double Double
TTITLE2=Gambler's Blues
TTITLE3=Moon Circle
TTITLE4=Rollin' n' Tumblin'
TTITLE5=12 Long Years
TTITLE6=Enough!
TTITLE7=Dust My Broom
TTITLE8=The Lightning Strikes
TTITLE9=Ain't Nobody's Business
TTITLE10=The Great Blues Sea
TTITLE11=Summerland
TTITLE12=Wounded Healers
EXTD=
EXTT0=
EXTT1=
EXTT2=
EXTT3=
EXTT4=
EXTT5=
EXTT6=
EXTT7=
EXTT8=
EXTT9=
EXTT10=
EXTT11=
EXTT12=
PLAYORDER=
